<?xml version="1.0" encoding="UTF-8"?>
<svg id="Capa_1" data-name="Capa 1" xmlns="http://www.w3.org/2000/svg" viewBox="0 0 873.96 471.69">
  <defs>
    <style>
      .cls-1 {
        fill: #fff;
      }
    </style>
  </defs>
  <rect x="-22.18" y="-20.93" width="918.32" height="513.54"/>
  <g>
    <g>
      <path class="cls-1" d="M144.28,331.09h-26.07v68.45h-19.88v-68.45h-26.19v-17.03h72.14v17.03Z"/>
      <path class="cls-1" d="M165.47,314.07h22.74l31.43,85.47h-20.12l-6.19-17.14h-33.57l-6.19,17.14h-19.64l31.55-85.47ZM176.42,336.09l-10.71,29.88h21.55l-10.83-29.88Z"/>
      <path class="cls-1" d="M225.07,399.54v-85.47h19.88v68.45h38.21v17.02h-58.09Z"/>
      <path class="cls-1" d="M288.96,314.07h60.36v17.03h-40.83v16.43h34.05v16.78h-34.05v18.21h40.83v17.02h-60.36v-85.47Z"/>
      <path class="cls-1" d="M433.72,314.07v85.47h-17.26l-37.62-55.12v55.12h-19.05v-85.47h19.88l35,52.26v-52.26h19.05Z"/>
      <path class="cls-1" d="M511.66,331.09h-26.07v68.45h-19.88v-68.45h-26.19v-17.03h72.14v17.03Z"/>
      <path class="cls-1" d="M537.4,314.07v85.47h-19.88v-85.47h19.88Z"/>
      <path class="cls-1" d="M557.6,396.45c-6.78-2.98-11.9-6.79-15.36-11.43l12.26-13.69c6.55,8.21,15.71,13.09,25.24,13.09,8.69,0,14.05-3.69,14.05-9.76,0-3.81-2.14-5.95-8.21-7.74-1.31-.48-5.36-1.43-12.02-2.86-9.4-2.02-14.4-4.05-18.33-6.9-5.36-3.93-8.09-9.64-8.09-17.14,0-8.21,3.57-15.6,10.24-20.48,5.83-4.4,13.81-6.78,22.5-6.78,13.45,0,25.71,5.36,32.74,14.28l-12.02,13.1c-5.71-7.26-12.86-10.95-21.31-10.95-7.62,0-12.74,3.45-12.74,8.81,0,3.33,1.79,5.48,6.55,7.02,1.9.6,3.57,1.07,10.24,2.5,5.95,1.31,10.36,2.38,13.09,3.45,2.86.95,5.36,2.02,7.38,3.33,6.55,4.17,9.64,10.12,9.64,18.33,0,8.69-3.81,16.19-10.83,21.31-6.19,4.41-14.52,6.91-23.69,6.91-7.38,0-14.52-1.43-21.31-4.41Z"/>
      <path class="cls-1" d="M673.42,399.54h-14.29l-18.81-59.17v59.17h-18.93v-85.47h27.74l17.38,56.07,17.38-56.07h27.26v85.47h-18.93v-59.17l-18.81,59.17Z"/>
      <path class="cls-1" d="M719.91,356.81c0-12.26,3.81-23.09,10.95-31.19,7.5-8.21,18.09-12.86,30-12.86s22.5,4.64,30,12.86c7.14,7.97,10.95,18.93,10.95,31.19s-3.81,23.21-10.95,31.19c-7.5,8.21-17.98,12.86-30,12.86s-22.5-4.64-30-12.86c-7.14-8.1-10.95-18.93-10.95-31.19ZM776.1,376.33c3.93-4.88,5.83-11.43,5.83-19.52s-1.9-14.52-5.83-19.4c-3.93-4.88-8.93-7.38-15.24-7.38s-11.31,2.5-15.24,7.38c-3.81,4.88-5.71,11.31-5.71,19.4s1.9,14.64,5.71,19.52c3.93,4.88,8.93,7.26,15.24,7.26s11.31-2.38,15.24-7.26Z"/>
    </g>
    <polygon class="cls-1" points="469.57 157.98 517.82 163.56 515.21 186.14 466.37 180.49 503.81 240.42 484.53 252.48 446.71 191.95 431.22 235.95 409.77 228.4 425.5 183.74 343.61 212.25 336.13 190.78 418.68 162.03 380.41 137.94 392.53 118.7 431.39 143.17 423.7 74.67 446.3 72.14 454.06 141.33 515.01 80.39 531.08 96.46 469.57 157.98"/>
  </g>
</svg>